<mxfile host="app.diagrams.net" modified="2023-10-28T17:42:00.798Z" agent="Mozilla/5.0 (Windows NT 10.0; Win64; x64) AppleWebKit/537.36 (KHTML, like Gecko) Chrome/118.0.0.0 Safari/537.36" version="22.0.8" etag="Q-dF4FSsCZO73_DNaUy4" type="github">
  <diagram name="Page-1" id="Cfl8KXkoYxEYY4N4OK7H">
    <mxGraphModel>
      <root>
        <mxCell id="0" />
        <mxCell id="1" parent="0" />
      </root>
    </mxGraphModel>
  </diagram>
</mxfile>
